<?xml version="1.0" standalone="no"?><!DOCTYPE svg PUBLIC "-//W3C//DTD SVG 1.1//EN" "http://www.w3.org/Graphics/SVG/1.1/DTD/svg11.dtd"><svg class="icon" width="200px" height="200.00px" viewBox="0 0 1024 1024" version="1.1" xmlns="http://www.w3.org/2000/svg"><path d="M119.3 345.2h784c30.9 0 56-25.1 56-56s-25.1-56-56-56h-784c-30.9 0-56 25.1-56 56s25.1 56 56 56z m784 336h-784c-30.9 0-56 25.1-56 56s25.1 56 56 56h784c30.9 0 56-25.1 56-56s-25-56-56-56z m0-224h-784c-30.9 0-56 25.1-56 56s25.1 56 56 56h784c30.9 0 56-25.1 56-56s-25-56-56-56z" fill="#ffffff" /></svg>